REM GENRE Rock
REM DATE 1999
REM DISCID 820B5B0A
REM COMMENT "ExactAudioCopy v1.0b3"
PERFORMER "Beyond Dawn"
TITLE "Electric Sulking Machine"
FILE "Beyond Dawn - Electric Sulking Machine.flac" WAVE
  TRACK 01 AUDIO
    TITLE "Violence Heals"
    PERFORMER "Beyond Dawn"
    INDEX 00 00:00:00
    INDEX 01 00:00:32
  TRACK 02 AUDIO
    TITLE "Additions Are Private"
    PERFORMER "Beyond Dawn"
    INDEX 00 05:48:67
    INDEX 01 05:48:70
  TRACK 03 AUDIO
    TITLE "On the Subject of Turning Insane"
    PERFORMER "Beyond Dawn"
    INDEX 00 10:15:35
    INDEX 01 10:15:37
  TRACK 04 AUDIO
    TITLE "Certain Qualities"
    PERFORMER "Beyond Dawn"
    INDEX 00 15:40:00
    INDEX 01 15:40:65
  TRACK 05 AUDIO
    TITLE "Fairy Liquid"
    PERFORMER "Beyond Dawn"
    INDEX 00 20:48:67
    INDEX 01 20:48:70
  TRACK 06 AUDIO
    TITLE "Aagé"
    PERFORMER "Beyond Dawn"
    INDEX 00 25:09:32
    INDEX 01 25:10:00
  TRACK 07 AUDIO
    TITLE "Pop Ist Verboten"
    PERFORMER "Beyond Dawn"
    INDEX 00 30:18:20
    INDEX 01 30:18:22
  TRACK 08 AUDIO
    TITLE "Cigarette"
    PERFORMER "Beyond Dawn"
    INDEX 00 33:06:32
    INDEX 01 33:07:25
  TRACK 09 AUDIO
    TITLE "Pacific Blue Disorder"
    PERFORMER "Beyond Dawn"
    INDEX 00 39:34:07
    INDEX 01 39:34:15
  TRACK 10 AUDIO
    TITLE "Hairy Liquor (Mer kraft i hver draabe)"
    PERFORMER "Beyond Dawn"
    INDEX 00 44:12:22
    INDEX 01 44:13:07
